<svg xmlns="http://www.w3.org/2000/svg" viewBox="0 0 123.91 152.13"><defs><style>.cls-1{fill:#5138ee;}</style></defs><g id="Camada_2" data-name="Camada 2"><g id="Camada_1-2" data-name="Camada 1"><path class="cls-1" d="M123.63,148.55C122.78,146,99.44,84,97.81,79.68a.17.17,0,0,1,.17-.24h24.19a.24.24,0,0,0,.24-.3,58.78,58.78,0,0,0-4.51-12,1.31,1.31,0,0,0-1.19-.73c-9.22,0-20.89.26-23.55.32a.79.79,0,0,1-.76-.51L67.42.27a.43.43,0,0,0-.8,0L42.25,67H1.72A1.71,1.71,0,0,0,0,68.72a.19.19,0,0,0,0,.08,1.66,1.66,0,0,0,1.4,1.5C10.59,71.93,75.6,83.8,121,151.89a.56.56,0,0,0,.55.23C124.57,151.51,124,149.93,123.63,148.55ZM60.16,79.93,77,79.61a.36.36,0,0,0,.34-.41c-.22-1.52-1.67-7.08-11-11a15.1,15.1,0,0,0-5.82-1.15H56.11A.12.12,0,0,1,56,66.9L66.62,36.18a.06.06,0,0,1,.12,0l24.39,64.67a.13.13,0,0,1-.2.15L60.12,80.08A.08.08,0,0,1,60.16,79.93Z"/><path class="cls-1" d="M44.77,96.26l-7.24,19.58a.63.63,0,0,1-.59.41H24a.62.62,0,0,1-.59-.84l9-24.53a.62.62,0,0,1,.84-.36l11.22,4.94A.64.64,0,0,1,44.77,96.26Z"/></g></g></svg>